<svg class="qodef-svg--compare" width="18.723" height="14.433" viewBox="0 0 18.723 14.433"><path d="M882.4,655.637h-8.65l1.752-1.753a.847.847,0,0,0-.6-1.446h0a.846.846,0,0,0-.6.248l-3.183,3.184a.831.831,0,0,0,0,1.228l3.183,3.183a.847.847,0,0,0,1.2,0,.849.849,0,0,0,0-1.2l-1.752-1.752h8.65a.847.847,0,1,0,0-1.694Z" transform="translate(-870.847 -646.096)"></path><path d="M889.57,652.141a.841.841,0,0,0-.272-.615l-3.183-3.183a.847.847,0,1,0-1.2,1.2l1.752,1.752h-8.651a.847.847,0,0,0,0,1.695h8.651l-1.752,1.752a.847.847,0,1,0,1.2,1.2l3.183-3.183A.841.841,0,0,0,889.57,652.141Z" transform="translate(-870.847 -648.096)"></path></svg>